<?xml version="1.0" encoding="UTF-8" standalone="no"?>
<!DOCTYPE svg PUBLIC "-//W3C//DTD SVG 1.1//EN"
 "http://www.w3.org/Graphics/SVG/1.1/DTD/svg11.dtd">
<!-- Generated by graphviz version 2.43.0 (0)
 -->
<!-- Title: G Pages: 1 -->
<svg width="288pt" height="500pt"
 viewBox="0.00 0.00 287.78 499.98" xmlns="http://www.w3.org/2000/svg" xmlns:xlink="http://www.w3.org/1999/xlink">
<g id="graph0" class="graph" transform="scale(1 1) rotate(0) translate(4 495.98)">
<title>G</title><style>.edge>path:hover{stroke-width:8}</style>
<polygon fill="white" stroke="transparent" points="-4,4 -4,-495.98 283.78,-495.98 283.78,4 -4,4"/>
<!-- ifgen___main__ -->
<g id="node1" class="node">
<title>ifgen___main__</title><style>.edge>path:hover{stroke-width:8}</style>
<ellipse fill="#ac4949" stroke="black" cx="100.69" cy="-18" rx="52.96" ry="18"/>
<text text-anchor="middle" x="100.69" y="-15.5" font-family="Helvetica,sans-Serif" font-size="10.00" fill="#ffffff">ifgen.__main__</text>
</g>
<!-- ifgen_app -->
<g id="node2" class="node">
<title>ifgen_app</title><style>.edge>path:hover{stroke-width:8}</style>
<ellipse fill="#a13535" stroke="black" cx="100.69" cy="-162" rx="36.49" ry="18"/>
<text text-anchor="middle" x="100.69" y="-159.5" font-family="Helvetica,sans-Serif" font-size="10.00" fill="#ffffff">ifgen.app</text>
</g>
<!-- ifgen_entry -->
<g id="node5" class="node">
<title>ifgen_entry</title><style>.edge>path:hover{stroke-width:8}</style>
<ellipse fill="#b83d3d" stroke="black" cx="100.69" cy="-90" rx="41.41" ry="18"/>
<text text-anchor="middle" x="100.69" y="-87.5" font-family="Helvetica,sans-Serif" font-size="10.00" fill="#ffffff">ifgen.entry</text>
</g>
<!-- ifgen_app&#45;&gt;ifgen_entry -->
<g id="edge1" class="edge">
<title>ifgen_app&#45;&gt;ifgen_entry</title><style>.edge>path:hover{stroke-width:8}</style>
<path fill="none" stroke="black" d="M100.69,-143.7C100.69,-135.98 100.69,-126.71 100.69,-118.11"/>
<polygon fill="#a13535" stroke="black" points="104.19,-118.1 100.69,-108.1 97.19,-118.1 104.19,-118.1"/>
</g>
<!-- ifgen_commands -->
<g id="node3" class="node">
<title>ifgen_commands</title><style>.edge>path:hover{stroke-width:8}</style>
<ellipse fill="#c24747" stroke="black" cx="57.69" cy="-234" rx="57.88" ry="18"/>
<text text-anchor="middle" x="57.69" y="-231.5" font-family="Helvetica,sans-Serif" font-size="10.00" fill="#ffffff">ifgen.commands</text>
</g>
<!-- ifgen_commands&#45;&gt;ifgen_app -->
<g id="edge2" class="edge">
<title>ifgen_commands&#45;&gt;ifgen_app</title><style>.edge>path:hover{stroke-width:8}</style>
<path fill="none" stroke="black" d="M68.1,-216.05C73.17,-207.8 79.37,-197.7 85,-188.54"/>
<polygon fill="#c24747" stroke="black" points="88.12,-190.14 90.38,-179.79 82.16,-186.48 88.12,-190.14"/>
</g>
<!-- ifgen_commands_all -->
<g id="node4" class="node">
<title>ifgen_commands_all</title><style>.edge>path:hover{stroke-width:8}</style>
<ellipse fill="#b83d3d" stroke="black" cx="143.69" cy="-316.99" rx="52.15" ry="28.98"/>
<text text-anchor="middle" x="143.69" y="-325.49" font-family="Helvetica,sans-Serif" font-size="10.00" fill="#ffffff">ifgen.</text>
<text text-anchor="middle" x="143.69" y="-314.49" font-family="Helvetica,sans-Serif" font-size="10.00" fill="#ffffff">commands.</text>
<text text-anchor="middle" x="143.69" y="-303.49" font-family="Helvetica,sans-Serif" font-size="10.00" fill="#ffffff">all</text>
</g>
<!-- ifgen_commands_all&#45;&gt;ifgen_app -->
<g id="edge3" class="edge">
<title>ifgen_commands_all&#45;&gt;ifgen_app</title><style>.edge>path:hover{stroke-width:8}</style>
<path fill="none" stroke="black" d="M147.33,-287.76C148.47,-271.97 148.4,-252.08 143.69,-235"/>
</g>
<!-- ifgen_entry&#45;&gt;ifgen___main__ -->
<g id="edge4" class="edge">
<title>ifgen_entry&#45;&gt;ifgen___main__</title><style>.edge>path:hover{stroke-width:8}</style>
<path fill="none" stroke="black" d="M100.69,-71.7C100.69,-63.98 100.69,-54.71 100.69,-46.11"/>
<polygon fill="#b83d3d" stroke="black" points="104.19,-46.1 100.69,-36.1 97.19,-46.1 104.19,-46.1"/>
</g>
<!-- vcorelib -->
<g id="node6" class="node">
<title>vcorelib</title><style>.edge>path:hover{stroke-width:8}</style>
<ellipse fill="#47c2c2" stroke="black" cx="134.69" cy="-473.98" rx="32.93" ry="18"/>
<text text-anchor="middle" x="134.69" y="-471.48" font-family="Helvetica,sans-Serif" font-size="10.00" fill="#000000">vcorelib</text>
</g>
<!-- vcorelib&#45;&gt;ifgen_app -->
<g id="edge5" class="edge">
<title>vcorelib&#45;&gt;ifgen_app</title><style>.edge>path:hover{stroke-width:8}</style>
<path fill="none" stroke="black" d="M140.04,-456.07C145.01,-437.74 150.66,-407.77 143.69,-382.98"/>
<path fill="none" stroke="black" d="M143.69,-381.98C134.35,-351.92 98.3,-373.32 82.69,-345.98 69.91,-323.6 71.92,-311.41 82.69,-288 97.7,-255.37 153.24,-269.62 143.69,-235"/>
<path fill="none" stroke="black" d="M143.69,-233C138.63,-216.61 128.84,-200.17 119.87,-187.35"/>
<polygon fill="#47c2c2" stroke="black" points="122.58,-185.12 113.87,-179.09 116.92,-189.24 122.58,-185.12"/>
</g>
<!-- vcorelib&#45;&gt;ifgen_commands_all -->
<g id="edge6" class="edge">
<title>vcorelib&#45;&gt;ifgen_commands_all</title><style>.edge>path:hover{stroke-width:8}</style>
<path fill="none" stroke="black" d="M143.69,-381.98C141.4,-373.85 140.47,-364.9 140.3,-356.33"/>
<polygon fill="#47c2c2" stroke="black" points="143.8,-356.2 140.42,-346.16 136.8,-356.12 143.8,-356.2"/>
</g>
<!-- vcorelib_args -->
<g id="node7" class="node">
<title>vcorelib_args</title><style>.edge>path:hover{stroke-width:8}</style>
<ellipse fill="#47c2c2" stroke="black" cx="232.69" cy="-473.98" rx="47.19" ry="18"/>
<text text-anchor="middle" x="232.69" y="-471.48" font-family="Helvetica,sans-Serif" font-size="10.00" fill="#000000">vcorelib.args</text>
</g>
<!-- vcorelib_args&#45;&gt;ifgen_app -->
<g id="edge7" class="edge">
<title>vcorelib_args&#45;&gt;ifgen_app</title><style>.edge>path:hover{stroke-width:8}</style>
<path fill="none" stroke="black" d="M223.69,-381.98C208.9,-342.02 226.14,-324.82 204.69,-288 186.61,-256.97 154.28,-269.32 143.69,-235"/>
</g>
<!-- vcorelib_args&#45;&gt;ifgen_commands_all -->
<g id="edge8" class="edge">
<title>vcorelib_args&#45;&gt;ifgen_commands_all</title><style>.edge>path:hover{stroke-width:8}</style>
<path fill="none" stroke="black" d="M232.73,-455.74C232.37,-437.37 230.62,-407.62 223.69,-382.98"/>
<path fill="none" stroke="black" d="M223.69,-381.98C217.71,-365.82 204.79,-352.73 191.05,-342.69"/>
<polygon fill="#47c2c2" stroke="black" points="192.68,-339.57 182.44,-336.84 188.75,-345.36 192.68,-339.57"/>
</g>
</g>
</svg>
